<svg width="96" height="30" viewBox="0 0 96 30" fill="none" xmlns="http://www.w3.org/2000/svg">
<path fill-rule="evenodd" clip-rule="evenodd" d="M58.8827 22.3922C53.325 26.8624 45.267 29.24 38.3287 29.24C28.604 29.24 19.8475 25.3225 13.2202 18.8008C12.7 18.2888 13.1641 17.589 13.7894 17.9857C20.9393 22.5203 29.7804 25.2512 38.9124 25.2512C45.0726 25.2512 51.8443 23.8577 58.075 20.9775C59.0146 20.5427 59.8025 21.6525 58.8827 22.3922Z" fill="#787878"/>
<path fill-rule="evenodd" clip-rule="evenodd" d="M61.5379 20.2612C60.8094 19.3934 56.7249 19.8499 54.8903 20.0541C54.3345 20.1162 54.2482 19.6648 54.7493 19.3371C58.0074 17.2071 63.346 17.8224 63.9664 18.5349C64.592 19.2545 63.8031 24.2362 60.7492 26.6135C60.2794 26.9794 59.833 26.7845 60.0411 26.3011C60.7279 24.7045 62.2663 21.129 61.5379 20.2612Z" fill="#787878"/>
<path fill-rule="evenodd" clip-rule="evenodd" d="M54.1852 3.5945V1.3755C54.1866 1.03776 54.4462 0.812599 54.7587 0.813286L64.8997 0.812256C65.2238 0.812256 65.4842 1.04394 65.4849 1.37276L65.4842 3.27598C65.4817 3.59519 65.2077 4.01188 64.7206 4.67294L59.4677 12.0288C61.4177 11.9842 63.4803 12.2701 65.2521 13.2469C65.6514 13.4669 65.7585 13.7937 65.79 14.1132V16.4809C65.79 16.8073 65.4261 17.1848 65.0436 16.9885C61.922 15.3849 57.7799 15.2095 54.3286 17.0077C53.9759 17.192 53.6067 16.82 53.6067 16.4936V14.2426C53.6067 13.8826 53.6137 13.2665 53.9839 12.7173L60.07 4.15432L54.771 4.15329C54.4473 4.15329 54.1873 3.92675 54.1852 3.5945Z" fill="#787878"/>
<path fill-rule="evenodd" clip-rule="evenodd" d="M19.6558 17.0567H16.7621C16.4867 17.0386 16.2664 16.8308 16.2444 16.5659L16.2464 1.66301C16.2464 1.36494 16.4962 1.12647 16.8048 1.12647L19.4999 1.12581C19.7819 1.14031 20.0084 1.3544 20.0261 1.62612V3.57203H20.0803C20.7828 1.69035 22.1064 0.812256 23.8892 0.812256C25.6993 0.812256 26.8338 1.69035 27.6443 3.57203C28.3465 1.69035 29.9403 0.812256 31.6423 0.812256C32.8579 0.812256 34.1815 1.31388 34.992 2.44296C35.9105 3.69719 35.7218 5.51629 35.7218 7.11571L35.7195 16.5202C35.7195 16.8179 35.4693 17.0567 35.1614 17.0567H32.2706C31.9801 17.0379 31.751 16.807 31.751 16.5215L31.7503 8.62092C31.7503 7.9938 31.8045 6.42568 31.6693 5.82985C31.4533 4.82627 30.8049 4.544 29.9675 4.544C29.2653 4.544 28.5356 5.01434 28.2385 5.76727C27.9414 6.51988 27.9687 7.77411 27.9687 8.62092V16.5202C27.9687 16.8179 27.7185 17.0567 27.4103 17.0567H24.5198C24.2293 17.0379 24.0002 16.807 24.0002 16.5215L23.9972 8.62092C23.9972 6.95893 24.2674 4.51271 22.2144 4.51271C20.1341 4.51271 20.2152 6.89602 20.2152 8.62092L20.2142 16.5202C20.2146 16.8179 19.9644 17.0567 19.6558 17.0567Z" fill="#787878"/>
<path fill-rule="evenodd" clip-rule="evenodd" d="M74.6978 3.1336C72.5851 3.1336 72.4515 6.13759 72.4515 8.0111C72.4515 9.88495 72.4249 13.8908 74.6712 13.8908C76.8908 13.8908 76.9974 10.6602 76.9974 8.68966C76.9974 7.39768 76.9441 5.84717 76.5698 4.61931C76.2484 3.55329 75.6067 3.1336 74.6978 3.1336ZM74.6712 0C78.923 0 81.2222 3.81182 81.2222 8.65743C81.2222 13.3412 78.6825 17.0567 74.6712 17.0567C70.4996 17.0567 68.2267 13.2445 68.2267 8.49593C68.2267 3.71479 70.5263 0 74.6712 0Z" fill="#787878"/>
<path fill-rule="evenodd" clip-rule="evenodd" d="M86.3389 17.0567H83.3837C83.0866 17.0379 82.8514 16.807 82.8514 16.5215L82.8467 1.61295C82.8716 1.34056 83.1175 1.12647 83.4163 1.12647L86.168 1.12581C86.4267 1.13866 86.6404 1.31191 86.6949 1.54312V3.82268H86.7508C87.5815 1.78422 88.744 0.812256 90.7932 0.812256C92.1219 0.812256 93.4237 1.28259 94.2544 2.56845C95.03 3.7601 95.03 5.76727 95.03 7.20958V16.587C94.9964 16.8515 94.7544 17.0567 94.4614 17.0567H91.4876C91.2131 17.0392 90.9917 16.842 90.9594 16.587V8.49543C90.9594 6.86473 91.1532 4.48142 89.1041 4.48142C88.384 4.48142 87.7195 4.95176 87.3877 5.67307C86.9725 6.58246 86.9167 7.49185 86.9167 8.49543V16.5202C86.9113 16.8179 86.6549 17.0567 86.3389 17.0567Z" fill="#787878"/>
<path fill-rule="evenodd" clip-rule="evenodd" d="M50.2667 16.6577C50.0715 16.8326 49.7905 16.8443 49.5707 16.7263C48.5923 15.9122 48.4169 15.536 47.8822 14.7614C46.265 16.4102 45.1196 16.9045 43.0255 16.9045C40.5455 16.9045 38.6161 15.3728 38.6161 12.3092C38.6161 9.91563 39.9113 8.28822 41.7578 7.49024C43.356 6.7879 45.5884 6.66048 47.2968 6.46884V6.08591C47.2968 5.38391 47.352 4.55415 46.9386 3.9478C46.5801 3.40533 45.8914 3.18192 45.285 3.18192C44.1616 3.18192 43.1628 3.75817 42.9172 4.95247C42.8664 5.21802 42.6726 5.4809 42.4057 5.49427L39.5504 5.18525C39.3095 5.13073 39.0415 4.93709 39.111 4.56886C39.7673 1.10168 42.8952 0.0541992 45.6986 0.0541992C47.1314 0.0541992 49.0053 0.437138 50.135 1.52241C51.5682 2.86286 51.4302 4.6498 51.4302 6.5966V11.1902C51.4302 12.5718 52.0039 13.1781 52.5422 13.9226C52.7303 14.1908 52.7727 14.5099 52.5325 14.7059C51.9307 15.2106 50.8618 16.1403 50.2734 16.664L50.2667 16.6577ZM47.2968 9.46881C47.2968 10.618 47.3242 11.5751 46.7455 12.5965C46.277 13.4263 45.5332 13.9367 44.7062 13.9367C43.5765 13.9367 42.9152 13.0748 42.9152 11.7986C42.9152 9.28754 45.1657 8.83069 47.2968 8.83069V9.46881Z" fill="#787878"/>
<path fill-rule="evenodd" clip-rule="evenodd" d="M11.6502 16.6577C11.4551 16.8326 11.1737 16.8443 10.9542 16.7263C9.97548 15.9122 9.80039 15.536 9.26542 14.7614C7.64885 16.4102 6.50341 16.9045 4.409 16.9045C1.92867 16.9045 0 15.3728 0 12.3092C0 9.91563 1.29513 8.28822 3.14127 7.49024C4.73981 6.7879 6.97187 6.66048 8.68034 6.46884V6.08591C8.68034 5.38391 8.73548 4.55415 8.32214 3.9478C7.96394 3.40533 7.27461 3.18192 6.66881 3.18192C5.54542 3.18192 4.546 3.75817 4.30108 4.95247C4.24995 5.21802 4.05648 5.4809 3.78917 5.49427L0.934261 5.18525C0.693011 5.13073 0.424695 4.93709 0.49453 4.56886C1.15045 1.10168 4.27869 0.0541992 7.08181 0.0541992C8.51494 0.0541992 10.3888 0.437138 11.5189 1.52241C12.9517 2.86286 12.814 4.6498 12.814 6.5966V11.1902C12.814 12.5718 13.3871 13.1781 13.9257 13.9226C14.1135 14.1908 14.1559 14.5099 13.916 14.7059C13.3146 15.2106 12.245 16.1403 11.6572 16.664L11.6502 16.6577ZM8.68034 9.46881C8.68034 10.618 8.70808 11.5751 8.12901 12.5965C7.66087 13.4263 6.91674 13.9367 6.09007 13.9367C4.96034 13.9367 4.29874 13.0748 4.29874 11.7986C4.29874 9.28754 6.54952 8.83069 8.68034 8.83069V9.46881Z" fill="#787878"/>
</svg>
