<svg width="136" height="18" viewBox="0 0 136 18" fill="none" xmlns="http://www.w3.org/2000/svg">
<path d="M4.70684 7.91465C4.55509 7.72317 4.27328 7.68062 4.07818 7.82955C4.01315 7.8721 3.9698 7.93593 3.94812 7.99976L0.046137 15.6804C-0.0622514 15.9145 0.0244593 16.1911 0.262914 16.2974C0.327947 16.3187 0.39298 16.34 0.47969 16.34H5.92079C6.09421 16.34 6.26763 16.2549 6.33266 16.0847C7.48158 13.7018 6.76622 10.0848 4.70684 7.91465Z" fill="#787878"/>
<path d="M7.73512 0.269744C5.70124 3.39945 5.45539 7.35042 7.10931 10.7021L9.8137 16.0736C9.9031 16.229 10.0596 16.34 10.2384 16.34H15.8483C16.1165 16.34 16.34 16.118 16.34 15.8517C16.34 15.7851 16.3176 15.6963 16.2953 15.6297C16.2953 15.6297 8.74089 0.624888 8.56208 0.247548C8.45033 0.0255828 8.18213 -0.0632031 7.95862 0.0477793C7.84687 0.114369 7.77982 0.180958 7.73512 0.269744Z" fill="#787878"/>
<path fill-rule="evenodd" clip-rule="evenodd" d="M85.118 12.7838C85.118 12.7881 85.118 12.7924 85.118 12.7967L74.886 6.83893C74.8859 6.82614 74.8859 6.81334 74.8859 6.80051L85.118 12.7838ZM85.118 12.7838L85.14 12.7967C85.14 15.42 83.6469 17.2001 79.9361 17.2001C77.3012 17.2001 75.8959 16.5677 74.82 16.0055V12.6093C76.4009 13.5696 78.1795 14.0849 79.98 14.1083C81.4731 14.1083 81.9123 13.6164 81.9123 12.8903C81.9123 12.1408 81.4731 11.7661 79.3432 11.2976C75.808 10.5527 74.897 8.90553 74.886 6.83893L74.82 6.80051C74.82 4.1772 76.5986 2.58448 80.0459 2.58448C81.5609 2.53763 83.054 2.86554 84.4374 3.5448V6.82394C83.0101 6.12126 81.4951 5.62939 79.958 5.62939C78.6845 5.62939 78.0038 5.98073 78.0038 6.80051C78.0038 7.43292 78.4869 7.90137 80.3972 8.3464C83.8824 9.14138 85.1138 10.3098 85.118 12.7838Z" fill="#787878"/>
<path d="M123.84 2.58008V16.3401H126.782V5.85519L128.013 8.62993L132.186 16.3401H135.88V2.58008H132.938V11.4729L131.821 8.88011L128.469 2.58008H123.84Z" fill="#787878"/>
<rect x="101.48" y="2.58008" width="3.44" height="13.76" fill="#787878"/>
<path d="M98.9 12.7967C98.9 10.3139 97.5736 9.14276 93.8074 8.3464C91.7467 7.90137 91.2256 7.43292 91.2256 6.80051C91.2256 5.98073 91.9599 5.62939 93.3337 5.62939C94.9917 5.62939 96.6261 6.12126 98.1657 6.82394V3.5448C96.6735 2.86554 95.0628 2.53763 93.4284 2.58448C89.7097 2.58448 87.7911 4.1772 87.7911 6.80051C87.7911 8.88511 88.7622 10.5481 92.5994 11.2976C94.897 11.7661 95.3707 12.1408 95.3707 12.8903C95.3707 13.6164 94.897 14.1083 93.2863 14.1083C91.344 14.0849 89.4254 13.5696 87.72 12.6093V16.0055C88.8806 16.5677 90.3966 17.2001 93.2389 17.2001C97.313 17.1767 98.9 15.42 98.9 12.7967Z" fill="#787878"/>
<path d="M49.88 2.58008V16.3401H56.5803L57.62 13.3606H53.1608V2.58008H49.88Z" fill="#787878"/>
<path d="M36.98 2.58008V5.55952H40.4569V16.3401H43.6016V5.55952H47.3V2.58008H36.98Z" fill="#787878"/>
<path fill-rule="evenodd" clip-rule="evenodd" d="M27.9953 2.58008H32.2047L36.98 16.3401H33.3363L32.6574 14.0202C30.9826 14.5206 29.2174 14.5206 27.5426 14.0202L26.8637 16.3401H23.22L27.9953 2.58008ZM28.3347 11.291C28.9232 11.4502 29.5116 11.5411 30.1 11.5411C30.6884 11.5411 31.2768 11.4729 31.8653 11.291L30.1 5.28659L28.3347 11.291Z" fill="#787878"/>
<path fill-rule="evenodd" clip-rule="evenodd" d="M63.2553 2.58008H67.4647L72.24 16.3401H68.5963L67.9174 14.0202C66.2426 14.5206 64.4774 14.5206 62.8026 14.0202L62.1237 16.3401H58.48L63.2553 2.58008ZM63.5947 11.291C64.1832 11.4502 64.7716 11.5411 65.36 11.5411C65.9484 11.5411 66.5368 11.4729 67.1253 11.291L65.36 5.28659L63.5947 11.291Z" fill="#787878"/>
<path fill-rule="evenodd" clip-rule="evenodd" d="M112.275 2.58008H116.485L121.26 16.3401H117.616L116.937 14.0202C115.263 14.5206 113.497 14.5206 111.823 14.0202L111.144 16.3401H107.5L112.275 2.58008ZM112.615 11.291C113.203 11.4502 113.792 11.5411 114.38 11.5411C114.968 11.5411 115.557 11.4729 116.145 11.291L114.38 5.28659L112.615 11.291Z" fill="#787878"/>
</svg>
