<svg width="24" height="24" viewBox="0 0 24 24" fill="none" xmlns="http://www.w3.org/2000/svg">
<circle cx="12" cy="12" r="12" fill="#0976B4"/>
<path fill-rule="evenodd" clip-rule="evenodd" d="M7.32525 8.90287C8.15138 8.90287 8.82112 8.29211 8.82112 7.53786C8.82112 6.78295 8.15138 6.17139 7.32525 6.17139C6.49832 6.17139 5.82858 6.78295 5.82858 7.53786C5.82858 8.29211 6.49832 8.90287 7.32525 8.90287Z" fill="white"/>
<path fill-rule="evenodd" clip-rule="evenodd" d="M6.17142 17.6838H8.85542V9.94287H6.17142V17.6838Z" fill="white"/>
<path fill-rule="evenodd" clip-rule="evenodd" d="M12.6225 13.3785C12.6225 12.4908 13.0425 11.6227 14.0467 11.6227C15.051 11.6227 15.2979 12.4908 15.2979 13.3573V17.585H17.9699V13.1845C17.9699 10.1272 16.1627 9.6001 15.051 9.6001C13.9402 9.6001 13.3275 9.97582 12.6225 10.8862V9.84408H9.94287V17.585H12.6225V13.3785Z" fill="white"/>
</svg>
