<svg width="24" height="24" viewBox="0 0 24 24" fill="none" xmlns="http://www.w3.org/2000/svg">
<circle cx="12" cy="12" r="12" fill="#55ACEE"/>
<path fill-rule="evenodd" clip-rule="evenodd" d="M17.4968 7.41017C17.158 7.62712 16.3804 7.94238 15.9969 7.94238V7.94303C15.5589 7.48555 14.9424 7.19995 14.2587 7.19995C12.9306 7.19995 11.8538 8.27681 11.8538 9.6043C11.8538 9.78874 11.8752 9.96865 11.9147 10.1412H11.9143C10.1129 10.0939 8.14267 9.19099 6.95662 7.64564C6.2274 8.90785 6.85844 10.3116 7.68597 10.8231C7.4027 10.8445 6.88124 10.7905 6.63579 10.551C6.61934 11.3888 7.02216 12.4988 8.49096 12.9015C8.20808 13.0537 7.70734 13.01 7.48961 12.9776C7.56603 13.6848 8.55637 14.6094 9.63932 14.6094C9.25334 15.0558 7.80112 15.8656 6.17145 15.608C7.27823 16.2814 8.56816 16.6714 9.93347 16.6714C13.8134 16.6714 16.8265 13.5269 16.6643 9.64782C16.6637 9.64355 16.6637 9.63927 16.6633 9.63461C16.6637 9.62464 16.6643 9.61466 16.6643 9.6043C16.6643 9.59226 16.6633 9.58086 16.6629 9.5692C17.0161 9.32764 17.49 8.90034 17.8286 8.33795C17.6322 8.4461 17.0432 8.66266 16.495 8.71642C16.8468 8.52653 17.368 7.90469 17.4968 7.41017Z" fill="white"/>
</svg>
