<svg width="96" height="20" viewBox="0 0 96 20" fill="none" xmlns="http://www.w3.org/2000/svg">
<path d="M15.6132 18.0528C11.1672 18.0528 7.56407 14.4478 7.56407 10.001C7.56407 5.55391 11.1672 1.95231 15.6132 1.95231C17.1803 1.95231 18.6433 2.39923 19.8793 3.17392L15.6132 10.001L23.6445 5.36361C22.7719 3.97334 21.5204 2.7754 20.0072 1.86636C18.0815 0.713483 15.4028 0 12.4408 0C8.21563 0 4.50885 1.53538 2.44167 3.83469C0.911188 5.53442 0 7.67368 0 10.0008C0 12.3297 0.911188 14.4705 2.44167 16.1714C4.51422 18.4736 8.16579 20 12.3213 20C16.4762 20 20.1267 18.4724 22.2006 16.1714C22.3141 16.0447 22.4241 15.9168 22.5281 15.7841L22.2149 14.6103C20.7578 16.6902 18.3445 18.0528 15.6132 18.0528Z" fill="#787878"/>
<path d="M42.24 19.5158L38.8692 6.94111C38.3277 4.90907 36.4774 3.41553 34.2744 3.41553C33.7031 3.41553 33.1556 3.51761 32.6476 3.7024L25.3908 6.34118H32.8544L34.1298 11.1043C32.8926 10.0395 31.2814 9.39162 29.5171 9.39162C26.0136 9.39162 23.1771 11.7393 23.1771 14.6353C23.1771 17.5316 26.0136 19.8828 29.5171 19.8828C32.0392 19.8828 34.2696 18.648 35.6454 16.7511L36.3853 19.5158H42.24ZM31.9579 17.5627C30.3418 17.5627 29.0318 16.2538 29.0318 14.6353C29.0318 13.0193 30.3418 11.7092 31.9579 11.7092C33.574 11.7092 34.8852 13.0193 34.8852 14.6353C34.8852 16.2538 33.574 17.5627 31.9579 17.5627Z" fill="#787878"/>
<path d="M55.9837 3.41772C55.5415 3.41772 55.1231 3.5155 54.7502 3.69061L50.0908 5.86202C49.8602 4.47498 48.6553 3.41772 47.2018 3.41772C46.7619 3.41772 46.3423 3.5155 45.9646 3.69061L40.2761 6.34122H44.2756V19.516H50.1303V7.80692C50.1303 6.99901 50.7841 6.34134 51.5946 6.34134C52.4002 6.34134 53.0588 6.99901 53.0588 7.80692V19.516H58.9111V6.34122C58.9111 4.72552 57.5998 3.41784 55.9837 3.41784" fill="#787878"/>
<path d="M77.9357 11.7091C77.9357 16.2885 74.2242 20 69.6462 20C65.0645 20 61.3507 16.2885 61.3507 11.7091C61.3507 7.13097 65.0645 3.41772 69.6462 3.41772C74.2242 3.41772 77.9357 7.13109 77.9357 11.7091ZM69.9892 5.9341C69.7286 4.95848 68.7258 4.37936 67.7504 4.64161C66.7762 4.90278 66.1941 5.90625 66.4559 6.88175L69.2995 17.4838C69.5625 18.4604 70.563 19.0389 71.5383 18.7807C72.5137 18.5166 73.0934 17.5137 72.8317 16.5383L69.9892 5.9341Z" fill="#787878"/>
<path d="M92.699 3.41772C92.2555 3.41772 91.8348 3.5155 91.4559 3.69061L86.8013 5.86202C86.5718 4.47498 85.3669 3.41772 83.9134 3.41772C83.4736 3.41772 83.054 3.5155 82.6751 3.69061L76.989 6.34122H80.9873V19.516H86.8408V7.80692C86.8408 6.99901 87.4958 6.34134 88.3062 6.34134C89.1143 6.34134 89.7681 6.99901 89.7681 7.80692V19.516H95.6251V6.34122C95.6251 4.72552 94.3127 3.41784 92.699 3.41784" fill="#787878"/>
</svg>
