<svg width="67" height="76" viewBox="0 0 67 76" fill="none" xmlns="http://www.w3.org/2000/svg">
<path fill-rule="evenodd" clip-rule="evenodd" d="M6.72498 33.3043V26.2609C6.72498 14.2087 15.86 4.1913 27.83 2.93913L36.65 2V6.69565C49.7225 6.69565 60.275 17.1826 60.275 30.1739V33.3043H58.7L52.4 28.6087L49.25 20.7826C49.25 20.7826 42.4582 17.6522 33.5 17.6522C24.5418 17.6522 17.75 20.7826 17.75 20.7826L14.6 28.6087L8.29998 33.3043H6.72498Z" fill="white" stroke="white" stroke-width="3.13043"/>
<ellipse cx="23.2625" cy="38.7827" rx="3.9375" ry="3.91304" fill="white"/>
<ellipse cx="43.7375" cy="38.7827" rx="3.9375" ry="3.91304" fill="white"/>
<path d="M42.95 53.2173L42.635 53.8434C40.9025 57.2869 37.4375 59.4782 33.5 59.4782V59.4782C29.5625 59.4782 26.0975 57.2869 24.365 53.8434L24.05 53.2173" stroke="white" stroke-width="3.13043"/>
<path d="M8.29999 33.3043L14.6 28.6086L17.75 20.7825C22.79 18.5912 28.145 17.6521 33.5 17.6521C38.855 17.6521 44.21 18.5912 49.25 20.7825L52.4 28.6086L58.7 33.3043" stroke="white" stroke-width="3.13043"/>
<path d="M9.875 42.6957V37.2175C9.875 35.0262 8.1425 33.3044 5.9375 33.3044C3.7325 33.3044 2 35.0262 2 37.2175V41.1305C2 45.5131 5.465 48.9566 9.875 48.9566C9.875 54.9044 12.395 60.6957 16.9625 64.6088L22.79 69.6175C25.625 72.4349 29.405 74.0001 33.5 74.0001C37.595 74.0001 41.375 72.4349 44.21 69.6175L50.0375 64.6088C54.605 60.6957 57.125 54.9044 57.125 48.9566C61.535 48.9566 65 45.5131 65 41.1305V37.2175C65 35.0262 63.2675 33.3044 61.0625 33.3044C58.8575 33.3044 57.125 35.0262 57.125 37.2175V42.6957" stroke="white" stroke-width="3.13043"/>
</svg>
