<svg width="24" height="24" viewBox="0 0 24 24" fill="none" xmlns="http://www.w3.org/2000/svg">
<path fill-rule="evenodd" clip-rule="evenodd" d="M6.27259 17.7276C5.06344 16.5184 5.06344 14.5526 6.27259 13.3435L9.10102 10.5151L7.75752 9.17156L4.92909 12C2.97747 13.9516 2.97747 17.1194 4.92909 19.0711C6.8807 21.0227 10.0485 21.0227 12.0002 19.0711L14.8286 16.2426L13.4851 14.8991L10.6567 17.7276C9.4475 18.9367 7.48174 18.9367 6.27259 17.7276ZM9.87884 15.5355L15.5357 9.87867L14.1215 8.46445L8.46462 14.1213L9.87884 15.5355ZM12.0002 4.92892L9.17173 7.75735L10.5152 9.10085L13.3437 6.27242C14.5528 5.06327 16.5186 5.06327 17.7277 6.27242C18.9369 7.48158 18.9369 9.44733 17.7277 10.6565L14.8993 13.4849L16.2428 14.8284L19.0712 12C21.0228 10.0484 21.0228 6.88054 19.0712 4.92892C17.1196 2.97731 13.9518 2.97731 12.0002 4.92892Z" fill="#404040"/>
</svg>
