<svg width="93" height="25" viewBox="0 0 93 25" fill="none" xmlns="http://www.w3.org/2000/svg">
<path d="M0.171875 19V0.818181H8.01989C9.36932 0.818181 10.5501 1.0638 11.5621 1.55504C12.5742 2.04628 13.3614 2.75355 13.9237 3.67685C14.4859 4.60014 14.767 5.70691 14.767 6.99716C14.767 8.29924 14.477 9.39713 13.897 10.2908C13.3229 11.1845 12.515 11.8593 11.4734 12.315C10.4376 12.7707 9.22727 12.9986 7.84233 12.9986H3.15483V9.16335H6.84801C7.42803 9.16335 7.92223 9.09233 8.33061 8.95028C8.74491 8.80232 9.06155 8.56854 9.28054 8.24893C9.50545 7.92933 9.6179 7.51207 9.6179 6.99716C9.6179 6.47633 9.50545 6.05315 9.28054 5.72763C9.06155 5.39619 8.74491 5.15353 8.33061 4.99964C7.92223 4.83984 7.42803 4.75994 6.84801 4.75994H5.10795V19H0.171875ZM10.8253 10.6548L15.3707 19H10.0085L5.5696 10.6548H10.8253ZM23.2188 19.2486C21.7391 19.2486 20.4725 18.9556 19.419 18.3697C18.3655 17.7778 17.5576 16.9551 16.9954 15.9016C16.4331 14.8422 16.152 13.6141 16.152 12.2173C16.152 10.8205 16.4331 9.59541 16.9954 8.5419C17.5576 7.48248 18.3655 6.6598 19.419 6.07386C20.4725 5.48201 21.7391 5.18608 23.2188 5.18608C24.6984 5.18608 25.965 5.48201 27.0185 6.07386C28.072 6.6598 28.8799 7.48248 29.4421 8.5419C30.0044 9.59541 30.2855 10.8205 30.2855 12.2173C30.2855 13.6141 30.0044 14.8422 29.4421 15.9016C28.8799 16.9551 28.072 17.7778 27.0185 18.3697C25.965 18.9556 24.6984 19.2486 23.2188 19.2486ZM23.2543 15.6264C23.6686 15.6264 24.0266 15.4873 24.3285 15.2092C24.6303 14.931 24.8641 14.5344 25.0298 14.0195C25.1955 13.5046 25.2784 12.892 25.2784 12.1818C25.2784 11.4657 25.1955 10.8531 25.0298 10.3441C24.8641 9.82919 24.6303 9.43265 24.3285 9.15447C24.0266 8.8763 23.6686 8.73722 23.2543 8.73722C22.8163 8.73722 22.4405 8.8763 22.1268 9.15447C21.8131 9.43265 21.5734 9.82919 21.4077 10.3441C21.242 10.8531 21.1591 11.4657 21.1591 12.1818C21.1591 12.892 21.242 13.5046 21.4077 14.0195C21.5734 14.5344 21.8131 14.931 22.1268 15.2092C22.4405 15.4873 22.8163 15.6264 23.2543 15.6264ZM38.8438 19.2486C37.3641 19.2486 36.0975 18.9556 35.044 18.3697C33.9905 17.7778 33.1826 16.9551 32.6204 15.9016C32.0581 14.8422 31.777 13.6141 31.777 12.2173C31.777 10.8205 32.0581 9.59541 32.6204 8.5419C33.1826 7.48248 33.9905 6.6598 35.044 6.07386C36.0975 5.48201 37.3641 5.18608 38.8438 5.18608C40.3234 5.18608 41.59 5.48201 42.6435 6.07386C43.697 6.6598 44.5049 7.48248 45.0671 8.5419C45.6294 9.59541 45.9105 10.8205 45.9105 12.2173C45.9105 13.6141 45.6294 14.8422 45.0671 15.9016C44.5049 16.9551 43.697 17.7778 42.6435 18.3697C41.59 18.9556 40.3234 19.2486 38.8438 19.2486ZM38.8793 15.6264C39.2936 15.6264 39.6516 15.4873 39.9535 15.2092C40.2553 14.931 40.4891 14.5344 40.6548 14.0195C40.8205 13.5046 40.9034 12.892 40.9034 12.1818C40.9034 11.4657 40.8205 10.8531 40.6548 10.3441C40.4891 9.82919 40.2553 9.43265 39.9535 9.15447C39.6516 8.8763 39.2936 8.73722 38.8793 8.73722C38.4413 8.73722 38.0655 8.8763 37.7518 9.15447C37.4381 9.43265 37.1984 9.82919 37.0327 10.3441C36.867 10.8531 36.7841 11.4657 36.7841 12.1818C36.7841 12.892 36.867 13.5046 37.0327 14.0195C37.1984 14.5344 37.4381 14.931 37.7518 15.2092C38.0655 15.4873 38.4413 15.6264 38.8793 15.6264ZM54.4688 19.2486C52.9891 19.2486 51.7225 18.9556 50.669 18.3697C49.6155 17.7778 48.8076 16.9551 48.2454 15.9016C47.6831 14.8422 47.402 13.6141 47.402 12.2173C47.402 10.8205 47.6831 9.59541 48.2454 8.5419C48.8076 7.48248 49.6155 6.6598 50.669 6.07386C51.7225 5.48201 52.9891 5.18608 54.4688 5.18608C55.9484 5.18608 57.215 5.48201 58.2685 6.07386C59.322 6.6598 60.1299 7.48248 60.6921 8.5419C61.2544 9.59541 61.5355 10.8205 61.5355 12.2173C61.5355 13.6141 61.2544 14.8422 60.6921 15.9016C60.1299 16.9551 59.322 17.7778 58.2685 18.3697C57.215 18.9556 55.9484 19.2486 54.4688 19.2486ZM54.5043 15.6264C54.9186 15.6264 55.2766 15.4873 55.5785 15.2092C55.8803 14.931 56.1141 14.5344 56.2798 14.0195C56.4455 13.5046 56.5284 12.892 56.5284 12.1818C56.5284 11.4657 56.4455 10.8531 56.2798 10.3441C56.1141 9.82919 55.8803 9.43265 55.5785 9.15447C55.2766 8.8763 54.9186 8.73722 54.5043 8.73722C54.0663 8.73722 53.6905 8.8763 53.3768 9.15447C53.0631 9.43265 52.8234 9.82919 52.6577 10.3441C52.492 10.8531 52.4091 11.4657 52.4091 12.1818C52.4091 12.892 52.492 13.5046 52.6577 14.0195C52.8234 14.5344 53.0631 14.931 53.3768 15.2092C53.6905 15.4873 54.0663 15.6264 54.5043 15.6264ZM63.4531 19V0.818181H68.3537V7.7429H68.4247C68.6023 7.28125 68.8627 6.85807 69.206 6.47337C69.5492 6.08274 69.9754 5.77202 70.4844 5.54119C70.9934 5.30445 71.5852 5.18608 72.2599 5.18608C73.1596 5.18608 74.0148 5.42578 74.8256 5.90518C75.6424 6.38459 76.3053 7.1392 76.8143 8.16903C77.3292 9.19886 77.5866 10.5365 77.5866 12.1818C77.5866 13.7562 77.341 15.0612 76.8498 16.0969C76.3645 17.1327 75.7134 17.9051 74.8967 18.4141C74.0858 18.9231 73.1951 19.1776 72.2244 19.1776C71.5852 19.1776 71.0141 19.074 70.511 18.8668C70.0138 18.6538 69.5877 18.3667 69.2326 18.0057C68.8834 17.6387 68.6141 17.2244 68.4247 16.7628H68.3182V19H63.4531ZM68.2472 12.1818C68.2472 12.8447 68.333 13.4188 68.5046 13.9041C68.6822 14.3835 68.9308 14.7564 69.2504 15.0227C69.5759 15.2831 69.9635 15.4134 70.4134 15.4134C70.8632 15.4134 71.2449 15.2861 71.5586 15.0316C71.8782 14.7712 72.1209 14.4013 72.2866 13.9219C72.4582 13.4366 72.544 12.8565 72.544 12.1818C72.544 11.5071 72.4582 10.93 72.2866 10.4506C72.1209 9.96532 71.8782 9.59541 71.5586 9.34091C71.2449 9.08049 70.8632 8.95028 70.4134 8.95028C69.9635 8.95028 69.5759 9.08049 69.2504 9.34091C68.9308 9.59541 68.6822 9.96532 68.5046 10.4506C68.333 10.93 68.2472 11.5071 68.2472 12.1818ZM82.2053 24.1136C81.6431 24.1136 81.1075 24.0692 80.5985 23.9805C80.0895 23.8976 79.6426 23.7822 79.2579 23.6342L80.3232 20.1541C80.7257 20.2962 81.0927 20.3879 81.4241 20.4293C81.7615 20.4708 82.0485 20.4471 82.2852 20.3583C82.5279 20.2695 82.7025 20.1009 82.809 19.8523L82.9156 19.6037L78.1215 5.36364H83.2352L85.4369 14.8097H85.5789L87.8161 5.36364H92.9653L87.9937 20.1364C87.7451 20.888 87.3841 21.5627 86.9106 22.1605C86.443 22.7642 85.8275 23.2406 85.064 23.5898C84.3005 23.939 83.3476 24.1136 82.2053 24.1136Z" fill="black"/>
</svg>
