<svg width="130" height="31" viewBox="0 0 130 31" fill="none" xmlns="http://www.w3.org/2000/svg">
<path fill-rule="evenodd" clip-rule="evenodd" d="M73.5117 20.4873C73.5117 20.7451 73.4876 21.0128 73.4203 21.2444C73.1358 22.2128 72.1581 23.0331 70.9376 23.0331C69.9211 23.0331 69.1093 22.4376 69.1093 21.1812C69.1093 19.2595 71.1686 18.7286 73.5117 18.7414V20.4873ZM77.1857 17.1392C77.1857 13.9686 75.8679 11.1799 71.418 11.1799C69.1342 11.1799 67.3191 11.8393 66.3297 12.4265L67.0537 14.9746C67.9583 14.3874 69.4004 13.9017 70.7642 13.9017C73.0225 13.8964 73.3918 15.2167 73.3918 16.0625V16.2625C68.4694 16.2543 65.36 18.0061 65.36 21.576C65.36 23.7564 66.9447 25.7999 69.6973 25.7999C71.3924 25.7999 72.8082 25.1045 73.6565 23.9917H73.7421C73.7421 23.9917 74.303 26.4074 77.4 25.4849C77.2391 24.4782 77.1857 23.4037 77.1857 22.1135V17.1392Z" fill="#787878"/>
<path fill-rule="evenodd" clip-rule="evenodd" d="M0 7.73999C0 7.73999 3.19137 20.7452 3.70089 22.8563C4.29532 25.3204 5.36661 26.2262 8.45565 25.6163L10.448 17.5529C10.9539 15.5486 11.2921 14.1217 11.6165 12.0842H11.6739C11.901 14.1426 12.2269 15.5551 12.6428 17.5594C12.6428 17.5594 13.4535 21.2194 13.8694 23.1421C14.2868 25.0634 15.4452 26.276 18.4703 25.6163L23.22 7.73999H19.3856L17.7641 15.4685C17.3272 17.7175 16.9338 19.4764 16.6275 21.5348H16.5738C16.2958 19.4966 15.9445 17.8084 15.5003 15.6172L13.8128 7.73999H9.81653L8.01218 15.418C7.50048 17.7514 7.02218 19.6359 6.71734 21.6228H6.6629C6.35081 19.7513 5.93492 17.3833 5.4871 15.1249C5.4871 15.1249 4.4129 9.63386 4.03694 7.73999" fill="#787878"/>
<path fill-rule="evenodd" clip-rule="evenodd" d="M30.5097 20.4873C30.5097 20.7451 30.4885 21.0128 30.4183 21.2444C30.1339 22.2128 29.1577 23.0331 27.9372 23.0331C26.9186 23.0331 26.1098 22.4376 26.1098 21.1812C26.1098 19.2595 28.1676 18.7286 30.5097 18.7414V20.4873ZM34.1835 17.1392C34.1835 13.9686 32.8666 11.1799 28.4169 11.1799C26.131 11.1799 24.3183 11.8393 23.3274 12.4265L24.0528 14.9746C24.9574 14.3874 26.3979 13.9017 27.7632 13.9017C30.022 13.8964 30.3913 15.2167 30.3913 16.0625V16.2625C25.4685 16.2543 22.36 18.0061 22.36 21.576C22.36 23.7564 23.9431 25.7999 26.6956 25.7999C28.3891 25.7999 29.8063 25.1045 30.6553 23.9917H30.7379C30.7379 23.9917 31.301 26.4074 34.4 25.4849C34.2362 24.4782 34.1835 23.4037 34.1835 22.1135V17.1392Z" fill="#787878"/>
<path fill-rule="evenodd" clip-rule="evenodd" d="M40.42 21.9649V7.73999H36.98V25.8H40.42" fill="#787878"/>
<path fill-rule="evenodd" clip-rule="evenodd" d="M89.44 7.73999V20.8431C89.44 22.6465 89.7885 23.9135 90.5372 24.6871C91.1886 25.3619 92.2636 25.8 93.5516 25.8C94.6496 25.8 95.7283 25.5978 96.2345 25.4135L96.1866 22.5948C95.8094 22.6852 95.3731 22.7576 94.7785 22.7576C93.517 22.7576 93.0941 21.9717 93.0941 20.3491V15.3384H96.32V11.9397H93.0941V7.73999" fill="#787878"/>
<path fill-rule="evenodd" clip-rule="evenodd" d="M79.98 12.3438V25.8H83.6636V18.9092C83.6636 18.5375 83.687 18.2127 83.7438 17.9162C84.018 16.4727 85.1012 15.5513 86.6588 15.5513C87.0857 15.5513 87.3919 15.5976 87.72 15.646V12.1232C87.4444 12.0654 87.2555 12.04 86.9096 12.04C85.533 12.04 83.969 12.9426 83.3127 14.8816H83.2118V12.3438" fill="#787878"/>
<path fill-rule="evenodd" clip-rule="evenodd" d="M43 12.3438V25.8H46.7577V17.9083C46.7577 17.5387 46.8008 17.146 46.9346 16.8075C47.2468 16.0127 48.0063 15.0819 49.2178 15.0819C50.734 15.0819 51.4437 16.3287 51.4437 18.131V25.8H55.197V17.8128C55.197 17.4599 55.2468 17.0353 55.3546 16.7214C55.6623 15.8174 56.4805 15.0819 57.6088 15.0819C59.1465 15.0819 59.8838 16.3085 59.8838 18.4268V25.8H63.64V17.875C63.64 13.694 61.4586 12.04 58.9978 12.04C57.9068 12.04 57.0461 12.3055 56.2687 12.7705C55.614 13.1618 55.029 13.7157 54.517 14.4462H54.462C53.8674 12.9961 52.4709 12.04 50.65 12.04C48.3118 12.04 47.2616 13.1929 46.6225 14.1721H46.5667V12.3438" fill="#787878"/>
<path fill-rule="evenodd" clip-rule="evenodd" d="M116.527 10.32C117.262 10.32 117.87 9.9465 117.952 9.46455L118.68 1.44299C118.68 0.650746 117.727 0 116.529 0C115.333 0 114.38 0.650746 114.38 1.44299L115.107 9.46455C115.187 9.9465 115.795 10.32 116.531 10.32" fill="#787878"/>
<path fill-rule="evenodd" clip-rule="evenodd" d="M111.55 12.8831C111.904 12.2162 111.876 11.4645 111.502 11.1322L104.987 6.16861C104.31 5.74457 103.294 6.2565 102.716 7.34281C102.14 8.4268 102.24 9.63878 102.917 10.0644L110.13 13.7119C110.584 13.8946 111.198 13.5446 111.552 12.88" fill="#787878"/>
<path fill-rule="evenodd" clip-rule="evenodd" d="M120.647 12.88C121.003 13.5445 121.615 13.8946 122.067 13.7119L129.283 10.0643C129.962 9.63873 130.059 8.42673 129.481 7.34272C128.905 6.25717 127.889 5.74447 127.211 6.16851L120.695 11.1321C120.323 11.4644 120.298 12.2161 120.649 12.883" fill="#787878"/>
<path fill-rule="evenodd" clip-rule="evenodd" d="M116.527 20.6399C117.262 20.6399 117.87 21.0133 117.952 21.4952L118.68 29.5157C118.68 30.3078 117.727 30.9599 116.529 30.9599C115.333 30.9599 114.38 30.3078 114.38 29.5157L115.107 21.4952C115.187 21.0133 115.795 20.6399 116.531 20.6399" fill="#787878"/>
<path fill-rule="evenodd" clip-rule="evenodd" d="M120.647 17.2208C121.003 16.5531 121.615 16.2062 122.067 16.3881L129.283 20.0347C129.962 20.461 130.059 21.6729 129.481 22.7584C128.905 23.8416 127.889 24.3558 127.211 23.9318L120.695 18.9685C120.323 18.6347 120.298 17.8838 120.649 17.2177" fill="#787878"/>
<path fill-rule="evenodd" clip-rule="evenodd" d="M111.55 17.2187C111.904 17.8849 111.876 18.6351 111.502 18.9698L104.987 23.9314C104.31 24.3555 103.294 23.8435 102.716 22.7602C102.14 21.6746 102.24 20.461 102.917 20.0346L110.13 16.3891C110.584 16.2048 111.198 16.5533 111.552 17.221" fill="#787878"/>
</svg>
